

<svg aria-hidden="true" style="position: absolute; width: 0; height: 0; overflow: hidden;" version="1.1" xmlns="http://www.w3.org/2000/svg" xmlns:xlink="http://www.w3.org/1999/xlink">
<defs>
<symbol id="icon-after" viewBox="0 0 32 32">
<path d="M12.098 28.216l3.232 3.232 15.33-15.33-15.33-15.33-3.232 3.232 9.813 9.813h-21.911v4.571h21.911l-9.813 9.813z"></path>
</symbol>
<symbol id="icon-before" viewBox="0 0 32 32">
<path d="M19.902 28.216l-9.813-9.813h21.911v-4.571h-21.911l9.813-9.813-3.232-3.232-15.33 15.33 15.33 15.33 3.232-3.232z"></path>
</symbol>
<symbol id="icon-Stars" viewBox="0 0 178 32">
<path d="M14.584 1.812c0.524-1.317 2.308-1.317 2.832 0l3.091 7.775c0.221 0.555 0.72 0.935 1.293 0.983l8.024 0.673c1.36 0.114 1.911 1.889 0.875 2.817l-6.114 5.478c-0.437 0.391-0.628 1.005-0.494 1.59l1.868 8.191c0.316 1.388-1.127 2.485-2.291 1.741l-6.87-4.39c-0.491-0.314-1.108-0.314-1.599 0l-6.87 4.389c-1.164 0.744-2.607-0.353-2.291-1.741l1.868-8.191c0.133-0.585-0.057-1.199-0.494-1.59l-6.114-5.478c-1.036-0.928-0.485-2.703 0.875-2.817l8.024-0.673c0.573-0.048 1.072-0.428 1.293-0.983l3.092-7.775z"></path>
<path d="M51.156 1.812c0.524-1.317 2.308-1.317 2.832 0l3.092 7.775c0.221 0.555 0.72 0.935 1.293 0.983l8.024 0.673c1.36 0.114 1.911 1.889 0.875 2.817l-6.114 5.478c-0.437 0.391-0.627 1.005-0.494 1.59l1.868 8.191c0.316 1.388-1.127 2.485-2.291 1.741l-6.87-4.39c-0.491-0.314-1.108-0.314-1.599 0l-6.87 4.389c-1.164 0.744-2.607-0.353-2.291-1.741l1.868-8.191c0.133-0.585-0.057-1.199-0.494-1.59l-6.114-5.478c-1.036-0.928-0.485-2.703 0.875-2.817l8.025-0.673c0.573-0.048 1.072-0.428 1.293-0.983l3.092-7.775z"></path>
<path d="M87.727 1.812c0.524-1.317 2.308-1.317 2.832 0l3.091 7.775c0.221 0.555 0.72 0.935 1.293 0.983l8.024 0.673c1.36 0.114 1.911 1.889 0.875 2.817l-6.114 5.478c-0.437 0.391-0.627 1.005-0.494 1.59l1.868 8.191c0.316 1.388-1.127 2.485-2.291 1.741l-6.87-4.39c-0.491-0.314-1.108-0.314-1.599 0l-6.87 4.389c-1.164 0.744-2.607-0.353-2.291-1.741l1.868-8.191c0.133-0.585-0.057-1.199-0.494-1.59l-6.114-5.478c-1.036-0.928-0.485-2.703 0.875-2.817l8.025-0.673c0.573-0.048 1.072-0.428 1.293-0.983l3.091-7.775z"></path>
<path d="M124.299 1.812c0.524-1.317 2.308-1.317 2.832 0l3.091 7.775c0.221 0.555 0.72 0.935 1.293 0.983l8.024 0.673c1.36 0.114 1.911 1.889 0.875 2.817l-6.114 5.478c-0.437 0.391-0.627 1.005-0.494 1.59l1.868 8.191c0.316 1.388-1.127 2.485-2.291 1.741l-6.87-4.39c-0.491-0.314-1.108-0.314-1.599 0l-6.87 4.389c-1.164 0.744-2.607-0.353-2.291-1.741l1.868-8.191c0.133-0.585-0.057-1.199-0.494-1.59l-6.114-5.478c-1.036-0.928-0.485-2.703 0.875-2.817l8.025-0.673c0.573-0.048 1.072-0.428 1.293-0.983l3.091-7.775z"></path>
<path d="M177.361 12.164l0.122 0.401c0.099 0.303 0.015 0.639-0.213 0.85l-7.384 6.657 2.188 9.977c0.073 0.319-0.040 0.654-0.29 0.85l-0.334 0.241c-0.131 0.107-0.291 0.164-0.456 0.16-0.14 0.003-0.277-0.036-0.396-0.112l-8.312-5.341-8.267 5.341c-0.119 0.076-0.256 0.115-0.395 0.112-0.165 0.004-0.326-0.053-0.456-0.16l-0.381-0.241c-0.248-0.197-0.363-0.531-0.288-0.85l2.188-9.977-7.37-6.641c-0.24-0.21-0.331-0.556-0.228-0.866l0.167-0.401c0.089-0.317 0.356-0.541 0.669-0.561l9.711-0.818 3.723-9.447c0.119-0.314 0.408-0.518 0.73-0.513h0.395c0.317-0.007 0.603 0.199 0.715 0.513l3.784 9.447 9.71 0.818c0.312 0.020 0.581 0.245 0.669 0.561zM168.547 26.584l-1.702-7.507 5.577-5.021-7.31-0.61-2.827-7.154v16.264l6.261 4.026z"></path>
</symbol>

<symbol id="icon-Dot" viewBox="0 0 28 32">
<path d="M28.444 14.406c0 7.855-6.367 14.222-14.222 14.222s-14.222-6.367-14.222-14.222c0-7.855 6.367-14.222 14.222-14.222s14.222 6.367 14.222 14.222z"></path>
</symbol>
</defs>
</svg>
