<svg width="116" height="20" viewBox="0 0 116 20" fill="none" xmlns="http://www.w3.org/2000/svg">
<g clip-path="url(#clip0_8230_10740)">
<path d="M9.0709 0.648363C9.41464 -0.216122 10.5854 -0.216121 10.9291 0.648365L12.9579 5.75071C13.1029 6.11516 13.4306 6.36417 13.8067 6.39571L19.0727 6.83732C19.9649 6.91215 20.3267 8.07684 19.6469 8.68594L15.6348 12.2809C15.3483 12.5378 15.223 12.9407 15.3106 13.3246L16.5364 18.6999C16.744 19.6106 15.7969 20.3305 15.033 19.8424L10.5246 16.9619C10.2025 16.7561 9.79752 16.7561 9.4755 16.9619L4.967 19.8424C4.20312 20.3305 3.25596 19.6106 3.46364 18.6999L4.68943 13.3246C4.77699 12.9407 4.65183 12.5378 4.36527 12.2809L0.353063 8.68594C-0.326719 8.07684 0.0350679 6.91215 0.927293 6.83732L6.19337 6.39571C6.56952 6.36417 6.89717 6.11516 7.04208 5.75071L9.0709 0.648363Z" fill="#080C09"/>
<path d="M33.0709 0.648363C33.4146 -0.216122 34.5854 -0.216121 34.9291 0.648365L36.9579 5.75071C37.1029 6.11516 37.4306 6.36417 37.8067 6.39571L43.0727 6.83732C43.9649 6.91215 44.3267 8.07684 43.6469 8.68594L39.6348 12.2809C39.3483 12.5378 39.223 12.9407 39.3106 13.3246L40.5364 18.6999C40.744 19.6106 39.7969 20.3305 39.033 19.8424L34.5246 16.9619C34.2025 16.7561 33.7975 16.7561 33.4755 16.9619L28.967 19.8424C28.2031 20.3305 27.256 19.6106 27.4636 18.6999L28.6894 13.3246C28.777 12.9407 28.6518 12.5378 28.3653 12.2809L24.3531 8.68594C23.6733 8.07684 24.0351 6.91215 24.9273 6.83732L30.1934 6.39571C30.5695 6.36417 30.8972 6.11516 31.0421 5.75071L33.0709 0.648363Z" fill="#080C09"/>
<path d="M57.0709 0.648363C57.4146 -0.216122 58.5854 -0.216121 58.9291 0.648365L60.9579 5.75071C61.1029 6.11516 61.4306 6.36417 61.8067 6.39571L67.0727 6.83732C67.9649 6.91215 68.3267 8.07684 67.6469 8.68594L63.6348 12.2809C63.3483 12.5378 63.223 12.9407 63.3106 13.3246L64.5364 18.6999C64.744 19.6106 63.7969 20.3305 63.033 19.8424L58.5246 16.9619C58.2025 16.7561 57.7975 16.7561 57.4755 16.9619L52.967 19.8424C52.2031 20.3305 51.256 19.6106 51.4636 18.6999L52.6894 13.3246C52.777 12.9407 52.6518 12.5378 52.3653 12.2809L48.3531 8.68594C47.6733 8.07684 48.0351 6.91215 48.9273 6.83732L54.1934 6.39571C54.5695 6.36417 54.8972 6.11516 55.0421 5.75071L57.0709 0.648363Z" fill="#080C09"/>
<path d="M81.0709 0.648363C81.4146 -0.216122 82.5854 -0.216121 82.9291 0.648365L84.9579 5.75071C85.1029 6.11516 85.4306 6.36417 85.8067 6.39571L91.0727 6.83732C91.9649 6.91215 92.3267 8.07684 91.6469 8.68594L87.6348 12.2809C87.3483 12.5378 87.223 12.9407 87.3106 13.3246L88.5364 18.6999C88.744 19.6106 87.7969 20.3305 87.033 19.8424L82.5246 16.9619C82.2025 16.7561 81.7975 16.7561 81.4755 16.9619L76.967 19.8424C76.2031 20.3305 75.256 19.6106 75.4636 18.6999L76.6894 13.3246C76.777 12.9407 76.6518 12.5378 76.3653 12.2809L72.3531 8.68594C71.6733 8.07684 72.0351 6.91215 72.9273 6.83732L78.1934 6.39571C78.5695 6.36417 78.8972 6.11516 79.0421 5.75071L81.0709 0.648363Z" fill="#080C09"/>
<path fill-rule="evenodd" clip-rule="evenodd" d="M115.893 7.44213L115.973 7.70529C116.038 7.90391 115.983 8.12465 115.833 8.26318L110.987 12.6316L112.423 19.1788C112.471 19.3881 112.397 19.6078 112.233 19.7367L112.014 19.8946C111.928 19.9652 111.823 20.0023 111.715 19.9999C111.623 20.0019 111.533 19.9763 111.455 19.9262L106 16.421L100.575 19.9262C100.497 19.9763 100.407 20.0019 100.316 19.9999C100.208 20.0023 100.102 19.9652 100.017 19.8946L99.7674 19.7367C99.6039 19.6078 99.5293 19.3881 99.5779 19.1788L101.014 12.6316L96.1772 8.2737C96.0195 8.136 95.9598 7.90913 96.0276 7.70529L96.1373 7.44213C96.1957 7.23416 96.371 7.08693 96.5761 7.07372L102.949 6.53688L105.392 0.336955C105.47 0.131058 105.66 -0.0027956 105.871 0.000116994H106.13C106.338 -0.00454821 106.526 0.130692 106.599 0.336955L109.082 6.53688L115.454 7.07372C115.659 7.08693 115.835 7.23416 115.893 7.44213ZM110.109 16.9052L108.992 11.9789L112.652 8.68423L107.855 8.28423L106 3.58955V14.2631L110.109 16.9052Z" fill="#080C09"/>
</g>
<defs>
<clipPath id="clip0_8230_10740">
<rect width="116" height="20" fill="white"/>
</clipPath>
</defs>
</svg>
