<!-- Generated by IcoMoon.io -->
<svg version="1.1" xmlns="http://www.w3.org/2000/svg" width="975" height="1024" viewBox="0 0 975 1024">
<g id="icomoon-ignore">
</g>
<path fill="#000" d="M970.021 370.845l3.886 12.832c3.199 9.685 0.507 20.449-6.807 27.204l-236.329 213.009 70.022 319.259c2.37 10.206-1.268 20.919-9.24 27.204l-10.698 7.7c-4.155 3.438-9.309 5.252-14.585 5.135-4.457 0.098-8.841-1.151-12.644-3.594l-265.996-170.92-264.536 170.92c-3.803 2.443-8.191 3.691-12.643 3.594-5.278 0.117-10.433-1.697-14.588-5.135l-12.157-7.7c-7.973-6.285-11.61-16.998-9.239-27.204l70.025-319.259-235.846-212.495c-7.691-6.715-10.603-17.778-7.294-27.717l5.349-12.832c2.844-10.142 11.395-17.321 21.396-17.965l310.734-26.177 119.138-302.32c3.818-10.040 13.093-16.567 23.342-16.425h12.641c10.157-0.227 19.334 6.367 22.855 16.425l121.086 302.32 310.735 26.177c10.001 0.644 18.549 7.823 21.397 17.965zM687.977 832.283l-54.462-240.216 178.464-160.655-233.901-19.504-90.448-228.922v520.464l200.348 128.834z"></path>
</svg>
