<!-- Generated by IcoMoon.io -->
<svg version="1.1" xmlns="http://www.w3.org/2000/svg" width="975" height="1024" viewBox="0 0 975 1024">
<g id="icomoon-ignore">
</g>
<path fill="#000" d="M442.314 71.996c16.761-42.154 73.85-42.154 90.609 0l98.928 248.8c7.070 17.771 23.050 29.913 41.389 31.451l256.78 21.534c43.505 3.648 61.147 60.441 27.999 90.142l-195.638 175.301c-13.97 12.522-20.080 32.168-15.809 50.888l59.772 262.11c10.123 44.407-36.059 79.511-73.309 55.715l-219.838-140.464c-15.706-10.035-35.454-10.035-51.156 0l-219.843 140.464c-37.248 23.796-83.434-11.308-73.307-55.715l59.772-262.11c4.27-18.72-1.833-38.366-15.807-50.888l-195.643-175.301c-33.147-29.701-15.506-86.494 28.001-90.142l256.784-21.534c18.342-1.538 34.319-13.681 41.385-31.451l98.929-248.8z"></path>
</svg>
