<svg xmlns="http://www.w3.org/2000/svg" aria-hidden="true" style="position:absolute;width:0;height:0;overflow:hidden"><defs><symbol id="icon-instagram" viewBox="0 0 32 32"><path d="M15.998 6.419c3.078 0 3.442.014 4.652.068 1.125.05 1.732.238 2.137.396.536.207.922.459 1.323.86.405.405.652.788.864 1.323.158.405.346 1.017.396 2.137.054 1.215.068 1.579.068 4.653s-.014 3.442-.068 4.653c-.05 1.125-.238 1.732-.396 2.137a3.558 3.558 0 0 1-.86 1.323 3.62 3.62 0 0 1-1.323.864c-.405.158-1.017.346-2.137.396-1.215.054-1.58.068-4.653.068s-3.442-.014-4.653-.068c-1.125-.05-1.732-.238-2.137-.396a3.558 3.558 0 0 1-1.323-.86 3.62 3.62 0 0 1-.864-1.323c-.158-.405-.346-1.017-.396-2.137-.054-1.215-.068-1.579-.068-4.653s.014-3.442.068-4.653c.05-1.125.238-1.732.396-2.137.207-.536.459-.922.86-1.323a3.62 3.62 0 0 1 1.323-.864c.405-.158 1.017-.346 2.137-.396 1.21-.054 1.575-.068 4.653-.068h.001zm0-2.074c-3.127 0-3.518.014-4.747.068-1.224.054-2.065.252-2.794.536a5.609 5.609 0 0 0-2.042 1.332 5.636 5.636 0 0 0-1.332 2.038c-.284.734-.482 1.57-.536 2.794-.054 1.233-.068 1.624-.068 4.751s.014 3.518.068 4.747c.054 1.224.252 2.065.536 2.794.297.76.688 1.404 1.332 2.042a5.637 5.637 0 0 0 2.038 1.328c.734.284 1.57.482 2.794.536 1.228.054 1.62.068 4.747.068s3.519-.014 4.747-.068c1.224-.054 2.065-.252 2.794-.536.756-.292 1.4-.688 2.038-1.328s1.035-1.282 1.328-2.038c.284-.734.482-1.57.536-2.794.054-1.228.068-1.62.068-4.747s-.014-3.518-.068-4.747c-.054-1.224-.252-2.065-.536-2.794a5.405 5.405 0 0 0-1.318-2.047 5.621 5.621 0 0 0-2.038-1.327c-.734-.284-1.57-.482-2.794-.536-1.233-.058-1.624-.072-4.751-.072l-.001.001z"/><path d="M15.998 9.946a5.918 5.918 0 1 0 5.917 5.917 5.918 5.918 0 0 0-5.917-5.917zm0 9.755a3.838 3.838 0 1 1 0-7.676 3.838 3.838 0 0 1 0 7.676zm7.531-9.988a1.38 1.38 0 1 1-2.761 0 1.38 1.38 0 0 1 2.761 0z"/></symbol><symbol id="icon-facebook" viewBox="0 0 32 32"><path d="M28.8 16.253c0-7.112-5.731-12.878-12.8-12.878S3.2 9.141 3.2 16.253c0 6.428 4.681 11.756 10.8 12.722v-8.999h-3.25v-3.723H14v-2.837c0-3.228 1.911-5.01 4.835-5.01 1.401 0 2.865.252 2.865.252v3.169h-1.614c-1.59 0-2.086.993-2.086 2.011v2.416h3.55l-.567 3.723H18v8.999c6.119-.966 10.8-6.294 10.8-12.722z"/></symbol><symbol id="icon-youtube" viewBox="0 0 32 32"><path d="M28.279 9.724a3.199 3.199 0 0 0-2.255-2.261C24.02 6.913 16 6.904 16 6.904s-8.018-.009-10.024.517a3.272 3.272 0 0 0-2.261 2.275c-.529 2.004-.534 6.162-.534 6.162s-.005 4.178.52 6.162a3.204 3.204 0 0 0 2.257 2.259c2.025.55 10.022.559 10.022.559s8.019.009 10.024-.516a3.221 3.221 0 0 0 2.262-2.257c.53-2.003.534-6.159.534-6.159s.026-4.179-.521-6.184zm-14.844 9.987.006-7.68 6.665 3.846-6.671 3.834z"/></symbol><symbol id="icon-Frame-1" viewBox="0 0 141 32"><path d="M14.369.483c8.588-.801 16.197 5.516 16.989 14.104s-5.532 16.191-14.122 16.975C8.659 32.345 1.07 26.031.278 17.455S5.793 1.283 14.368.483zm3.114 29.428c7.667-.921 13.134-7.884 12.209-15.55S21.8 1.232 14.134 2.162C6.475 3.091 1.018 10.05 1.943 17.709c.924 7.66 7.88 13.121 15.54 12.202z"/><path d="m21.926 7.901 1.796-.012c.035 5.185.037 10.369.008 15.554l-1.857.023-.003-9.741-.009-2.668c-1.038 1.969-2.215 3.862-3.338 5.783-.711 1.218-1.372 2.615-2.252 3.71-.21.077-.438.083-.656.033a.983.983 0 0 1-.276-.116c-.475-.379-4.939-8.222-5.652-9.411.183 1.41.068 2.949.067 4.373l-.005 7.999-1.899.007c.059-5.176-.034-10.356.016-15.533l2.068.011c.92 1.644 1.906 3.254 2.86 4.88 1.014 1.727 2.001 3.475 3.077 5.163 1.096-2.001 2.32-3.939 3.498-5.894.834-1.384 1.623-2.842 2.557-4.16zM117.035 11.595c.366-.025.742-.034 1.11-.028 1.37.024 2.769.757 3.706 1.728 1.169 1.21 1.711 2.897 1.672 4.561-.039 1.693-.674 3.303-1.92 4.465-1.105 1.029-2.521 1.58-4.035 1.523-1.734-.065-2.883-.795-4.045-2.036-.045.71-.032 1.429-.038 2.141.008 1.414.006 2.828-.006 4.242a9.249 9.249 0 0 1-1.982-.018c.108-2.189.012-4.431.013-6.626 0-3.265.051-6.539-.022-9.803l1.961-.008c-.038.728-.029 1.464-.04 2.194 1.062-1.326 1.949-1.965 3.626-2.335zm.849 10.497c1.22-.229 2.164-.726 2.879-1.779a4.699 4.699 0 0 0 .697-3.565c-.218-1.099-.87-2.138-1.827-2.739-.754-.473-1.569-.603-2.44-.578-1.208.228-2.188.659-2.913 1.712-.683.992-.977 2.405-.746 3.585a4.226 4.226 0 0 0 1.861 2.753c.774.487 1.591.627 2.488.611zM80.436 6.676c.32.329.419 1.195.609 1.66-2.058.864-5.042.686-6.697 2.267-.989.946-1.226 2.253-1.247 3.557.886-1.094 1.856-1.98 3.308-2.223 1.468-.245 3.022.038 4.226.934 1.293.962 2.012 2.357 2.228 3.938.248 1.816-.205 3.529-1.319 4.979-.807.895-1.746 1.557-2.929 1.847-1.497.367-3.206.177-4.526-.642-1.505-.935-2.371-2.477-2.746-4.174-.561-2.535-.451-6.325 1.011-8.575 1.288-1.985 3.235-2.379 5.397-2.893.898-.214 1.784-.476 2.684-.675zm-3.422 15.427c1.275-.189 2.223-.494 3.015-1.589.777-1.073 1.028-2.429.787-3.719-.194-1.041-.742-1.994-1.636-2.583a3.645 3.645 0 0 0-1.839-.6c-1.24.139-2.26.396-3.085 1.418-.774.96-1.106 2.257-.934 3.474.156 1.11.763 2.178 1.674 2.84.616.447 1.278.643 2.019.759zM52.55 7.466c.724-.073 1.478-.038 2.207-.043-.098 5.335.019 10.685-.012 16.022l-1.921-.019.003-9.437c-.005-1.081-.028-2.165.038-3.244-1.771 3.27-3.368 6.683-5.307 9.854l-1.248-.007c-1.91-3.131-3.5-6.506-5.266-9.724.069 1.476.022 2.974.023 4.452l.004 8.126c-.641-.017-1.278.025-1.92-.005l.001-9.721c.001-2.09-.04-4.192.075-6.279l2.137.001c.608 1.042 1.124 2.158 1.676 3.231 1.281 2.489 2.548 5.006 3.93 7.44 2.03-3.443 3.638-7.151 5.579-10.648zM62.431 11.598c.293-.016.587-.027.88-.033 1.538-.025 3.071.394 4.179 1.509 1.484 1.491 1.631 3.37 1.631 5.355-3.201.041-6.408-.003-9.61.012.099.528.198 1.034.45 1.516a4.031 4.031 0 0 0 2.409 2.002c1.245.377 2.497.156 3.616-.462.376-.255.719-.554 1.069-.843.503.287 1.011.527 1.542.756-.79 1.066-1.809 1.843-3.098 2.196-1.65.452-3.662.275-5.149-.6a5.576 5.576 0 0 1-2.591-3.505c-.439-1.769-.194-3.705.766-5.261.925-1.5 2.224-2.241 3.904-2.643zm-2.898 5.336c1.586-.013 3.172-.018 4.757-.013l2.964.002c-.289-1.216-.579-2.344-1.711-3.056-.828-.521-1.833-.601-2.786-.521-1.029.238-1.897.706-2.485 1.614-.398.614-.574 1.275-.741 1.976zM102.26 11.595c.287-.014.575-.024.863-.029 1.534-.017 3.067.438 4.162 1.558 1.441 1.473 1.573 3.353 1.567 5.298-3.188.048-6.384.01-9.574.018.043.582.145 1.082.417 1.606.502.969 1.336 1.61 2.377 1.915 1.392.409 2.659.107 3.889-.576.3-.207.568-.46.84-.702a14.71 14.71 0 0 0 1.551.704c-.834 1.096-1.871 1.89-3.219 2.232-1.675.425-3.597.262-5.092-.64-1.327-.801-2.237-2.122-2.586-3.626-.398-1.718-.12-3.693.84-5.182s2.273-2.209 3.965-2.575zm-3 5.335c1.518-.004 3.038-.025 4.556-.009l3.217-.002c-.334-1.251-.684-2.47-1.894-3.158-.749-.427-1.663-.499-2.509-.414-1.004.166-1.853.544-2.476 1.383-.494.665-.705 1.408-.895 2.199zM135.37 11.764c1.942-.091 3.913-.025 5.859-.019-.1 3.888-.011 7.803-.013 11.695l-2.001-.022-.001-3.995c-.956-.006-2.214-.193-3.126.024-.285.068-.335.211-.495.432-.675 1.198-1.427 2.354-2.104 3.552a57.21 57.21 0 0 1-2.269.006c.74-1.39 1.745-3.158 2.725-4.362a8.694 8.694 0 0 1-.346-.179c-.854-.472-1.508-1.23-1.759-2.182-.26-.992-.118-2.124.413-3.005.715-1.188 1.835-1.645 3.117-1.947zm2.052 5.982c.591-.005 1.194.013 1.782-.029-.008-1.383-.004-2.766.011-4.149-1.173-.004-2.363-.036-3.535.029-.739.232-1.316.482-1.716 1.194-.264.474-.335 1.099-.157 1.613.173.498.573.848 1.043 1.061.795.359 1.72.289 2.571.281zM86.927 11.871c2.534-.091 5.089-.032 7.626-.037l-.012 11.604c-.632-.009-1.267-.036-1.893.05l-.009-9.829-1.075.043c-.96-.047-1.94.016-2.902.038-.027 2.339-.036 7.188-1.674 8.919-.817.863-1.74.951-2.856.961a30.732 30.732 0 0 0-.085-1.821c.291-.027.6-.047.884-.119 1.764-.445 1.795-6.272 1.839-7.741.017-.573-.109-1.602.158-2.068zM128.024 11.785l.26-.015c.031.042.075.077.094.126.087.228-.003 10.365-.001 11.537l-1.7.012-.125-.025c-.272-.492.001-10.151-.084-11.612.519.006 1.038-.011 1.556-.023zM126.432 7.409l1.955-.006c-.021.694-.005 1.388.004 2.082l-2.012.015c.029-.697.047-1.394.052-2.091z"/></symbol></defs></svg>