<svg aria-hidden="true" style="position: absolute; width: 0; height: 0; overflow: hidden;" version="1.1" xmlns="http://www.w3.org/2000/svg" xmlns:xlink="http://www.w3.org/1999/xlink">
  <defs>
    <symbol id="icon-instagram" viewBox="0 0 32 32">
      <path d="M15.998 6.419c3.078 0 3.442 0.014 4.652 0.068 1.125 0.050 1.732 0.238 2.137 0.396 0.536 0.207 0.922 0.459 1.323 0.86 0.405 0.405 0.652 0.788 0.864 1.323 0.158 0.405 0.346 1.017 0.396 2.137 0.054 1.215 0.068 1.579 0.068 4.653s-0.014 3.442-0.068 4.653c-0.050 1.125-0.238 1.732-0.396 2.137-0.207 0.536-0.459 0.922-0.86 1.323-0.405 0.405-0.788 0.652-1.323 0.864-0.405 0.158-1.017 0.346-2.137 0.396-1.215 0.054-1.58 0.068-4.653 0.068s-3.442-0.014-4.653-0.068c-1.125-0.050-1.732-0.238-2.137-0.396-0.536-0.207-0.922-0.459-1.323-0.86-0.405-0.405-0.652-0.788-0.864-1.323-0.158-0.405-0.346-1.017-0.396-2.137-0.054-1.215-0.068-1.579-0.068-4.653s0.014-3.442 0.068-4.653c0.050-1.125 0.238-1.732 0.396-2.137 0.207-0.536 0.459-0.922 0.86-1.323 0.405-0.405 0.788-0.652 1.323-0.864 0.405-0.158 1.017-0.346 2.137-0.396 1.21-0.054 1.575-0.068 4.653-0.068h0.001zM15.998 4.345c-3.127 0-3.518 0.014-4.747 0.068-1.224 0.054-2.065 0.252-2.794 0.536-0.76 0.297-1.404 0.688-2.042 1.332-0.644 0.639-1.035 1.282-1.332 2.038-0.284 0.734-0.482 1.57-0.536 2.794-0.054 1.233-0.068 1.624-0.068 4.751s0.014 3.518 0.068 4.747c0.054 1.224 0.252 2.065 0.536 2.794 0.297 0.76 0.688 1.404 1.332 2.042 0.639 0.639 1.282 1.035 2.038 1.328 0.734 0.284 1.57 0.482 2.794 0.536 1.228 0.054 1.62 0.068 4.747 0.068s3.519-0.014 4.747-0.068c1.224-0.054 2.065-0.252 2.794-0.536 0.756-0.292 1.4-0.688 2.038-1.328s1.035-1.282 1.328-2.038c0.284-0.734 0.482-1.57 0.536-2.794 0.054-1.228 0.068-1.62 0.068-4.747s-0.014-3.518-0.068-4.747c-0.054-1.224-0.252-2.065-0.536-2.794-0.284-0.765-0.675-1.408-1.318-2.047-0.639-0.639-1.282-1.035-2.038-1.327-0.734-0.284-1.57-0.482-2.794-0.536-1.233-0.058-1.624-0.072-4.751-0.072l-0.001 0.001z"></path>
      <path d="M15.998 9.946c-3.266 0-5.917 2.65-5.917 5.917s2.65 5.917 5.917 5.917c3.267 0 5.917-2.65 5.917-5.917s-2.65-5.917-5.917-5.917zM15.998 19.701c-2.119 0-3.838-1.718-3.838-3.838s1.718-3.838 3.838-3.838c2.119 0 3.838 1.718 3.838 3.838s-1.718 3.838-3.838 3.838z"></path>
      <path d="M23.529 9.713c0 0.763-0.618 1.381-1.381 1.381s-1.381-0.618-1.381-1.381 0.619-1.381 1.381-1.381c0.763 0 1.381 0.618 1.381 1.381z"></path>
    </symbol>
    <symbol id="icon-Facebook" viewBox="0 0 32 32">
      <path d="M28.8 16.253c0-7.112-5.731-12.878-12.8-12.878s-12.8 5.766-12.8 12.878c0 6.428 4.681 11.756 10.8 12.722v-8.999h-3.25v-3.723h3.25v-2.837c0-3.228 1.911-5.010 4.835-5.010 1.401 0 2.865 0.252 2.865 0.252v3.169h-1.614c-1.59 0-2.086 0.993-2.086 2.011v2.416h3.55l-0.567 3.723h-2.983v8.999c6.119-0.966 10.8-6.294 10.8-12.722z"></path>
    </symbol>
    <symbol id="icon-youtube" viewBox="0 0 32 32">
      <path d="M28.279 9.724c-0.146-0.541-0.431-1.034-0.826-1.431s-0.888-0.683-1.429-0.83c-2.004-0.55-10.024-0.559-10.024-0.559s-8.018-0.009-10.024 0.517c-0.54 0.154-1.032 0.444-1.428 0.842s-0.683 0.892-0.833 1.433c-0.529 2.004-0.534 6.162-0.534 6.162s-0.005 4.178 0.52 6.162c0.294 1.097 1.158 1.964 2.257 2.259 2.025 0.55 10.022 0.559 10.022 0.559s8.019 0.009 10.024-0.516c0.541-0.147 1.034-0.432 1.431-0.828s0.683-0.888 0.831-1.429c0.53-2.003 0.534-6.159 0.534-6.159s0.026-4.179-0.521-6.184zM13.435 19.711l0.006-7.68 6.665 3.846-6.671 3.834z"></path>
    </symbol>
    <symbol id="icon-Frame-1" viewBox="0 0 141 32">
      <path d="M14.369 0.483c8.588-0.801 16.197 5.516 16.989 14.104s-5.532 16.191-14.122 16.975c-8.577 0.783-16.166-5.531-16.958-14.107s5.515-16.172 14.090-16.972zM17.483 29.911c7.667-0.921 13.134-7.884 12.209-15.55s-7.892-13.129-15.558-12.199c-7.659 0.929-13.116 7.888-12.191 15.547 0.924 7.66 7.88 13.121 15.54 12.202z"></path>
      <path d="M21.926 7.901l1.796-0.012c0.035 5.185 0.037 10.369 0.008 15.554l-1.857 0.023-0.003-9.741-0.009-2.668c-1.038 1.969-2.215 3.862-3.338 5.783-0.711 1.218-1.372 2.615-2.252 3.71-0.21 0.077-0.438 0.083-0.656 0.033-0.072-0.017-0.221-0.073-0.276-0.116-0.475-0.379-4.939-8.222-5.652-9.411 0.183 1.41 0.068 2.949 0.067 4.373l-0.005 7.999-1.899 0.007c0.059-5.176-0.034-10.356 0.016-15.533l2.068 0.011c0.92 1.644 1.906 3.254 2.86 4.88 1.014 1.727 2.001 3.475 3.077 5.163 1.096-2.001 2.32-3.939 3.498-5.894 0.834-1.384 1.623-2.842 2.557-4.16z"></path>
      <path d="M117.035 11.595c0.366-0.025 0.742-0.034 1.11-0.028 1.37 0.024 2.769 0.757 3.706 1.728 1.169 1.21 1.711 2.897 1.672 4.561-0.039 1.693-0.674 3.303-1.92 4.465-1.105 1.029-2.521 1.58-4.035 1.523-1.734-0.065-2.883-0.795-4.045-2.036-0.045 0.71-0.032 1.429-0.038 2.141 0.008 1.414 0.006 2.828-0.006 4.242-0.659 0.065-1.324 0.059-1.982-0.018 0.108-2.189 0.012-4.431 0.013-6.626 0-3.265 0.051-6.539-0.022-9.803l1.961-0.008c-0.038 0.728-0.029 1.464-0.040 2.194 1.062-1.326 1.949-1.965 3.626-2.335zM117.884 22.092c1.22-0.229 2.164-0.726 2.879-1.779 0.701-1.047 0.952-2.332 0.697-3.565-0.218-1.099-0.87-2.138-1.827-2.739-0.754-0.473-1.569-0.603-2.44-0.578-1.208 0.228-2.188 0.659-2.913 1.712-0.683 0.992-0.977 2.405-0.746 3.585 0.219 1.133 0.89 2.128 1.861 2.753 0.774 0.487 1.591 0.627 2.488 0.611z"></path>
      <path d="M80.436 6.676c0.32 0.329 0.419 1.195 0.609 1.66-2.058 0.864-5.042 0.686-6.697 2.267-0.989 0.946-1.226 2.253-1.247 3.557 0.886-1.094 1.856-1.98 3.308-2.223 1.468-0.245 3.022 0.038 4.226 0.934 1.293 0.962 2.012 2.357 2.228 3.938 0.248 1.816-0.205 3.529-1.319 4.979-0.807 0.895-1.746 1.557-2.929 1.847-1.497 0.367-3.206 0.177-4.526-0.642-1.505-0.935-2.371-2.477-2.746-4.174-0.561-2.535-0.451-6.325 1.011-8.575 1.288-1.985 3.235-2.379 5.397-2.893 0.898-0.214 1.784-0.476 2.684-0.675zM77.014 22.103c1.275-0.189 2.223-0.494 3.015-1.589 0.777-1.073 1.028-2.429 0.787-3.719-0.194-1.041-0.742-1.994-1.636-2.583-0.547-0.362-1.183-0.569-1.839-0.6-1.24 0.139-2.26 0.396-3.085 1.418-0.774 0.96-1.106 2.257-0.934 3.474 0.156 1.11 0.763 2.178 1.674 2.84 0.616 0.447 1.278 0.643 2.019 0.759z"></path>
      <path d="M52.55 7.466c0.724-0.073 1.478-0.038 2.207-0.043-0.098 5.335 0.019 10.685-0.012 16.022l-1.921-0.019 0.003-9.437c-0.005-1.081-0.028-2.165 0.038-3.244-1.771 3.27-3.368 6.683-5.307 9.854l-1.248-0.007c-1.91-3.131-3.5-6.506-5.266-9.724 0.069 1.476 0.022 2.974 0.023 4.452l0.004 8.126c-0.641-0.017-1.278 0.025-1.92-0.005l0.001-9.721c0.001-2.090-0.040-4.192 0.075-6.279l2.137 0.001c0.608 1.042 1.124 2.158 1.676 3.231 1.281 2.489 2.548 5.006 3.93 7.44 2.030-3.443 3.638-7.151 5.579-10.648z"></path>
      <path d="M62.431 11.598c0.293-0.016 0.587-0.027 0.88-0.033 1.538-0.025 3.071 0.394 4.179 1.509 1.484 1.491 1.631 3.37 1.631 5.355-3.201 0.041-6.408-0.003-9.61 0.012 0.099 0.528 0.198 1.034 0.45 1.516 0.501 0.965 1.369 1.687 2.409 2.002 1.245 0.377 2.497 0.156 3.616-0.462 0.376-0.255 0.719-0.554 1.069-0.843 0.503 0.287 1.011 0.527 1.542 0.756-0.79 1.066-1.809 1.843-3.098 2.196-1.65 0.452-3.662 0.275-5.149-0.6-1.304-0.769-2.239-2.034-2.591-3.505-0.439-1.769-0.194-3.705 0.766-5.261 0.925-1.5 2.224-2.241 3.904-2.643zM59.533 16.934c1.586-0.013 3.172-0.018 4.757-0.013l2.964 0.002c-0.289-1.216-0.579-2.344-1.711-3.056-0.828-0.521-1.833-0.601-2.786-0.521-1.029 0.238-1.897 0.706-2.485 1.614-0.398 0.614-0.574 1.275-0.741 1.976z"></path>
      <path d="M102.26 11.595c0.287-0.014 0.575-0.024 0.863-0.029 1.534-0.017 3.067 0.438 4.162 1.558 1.441 1.473 1.573 3.353 1.567 5.298-3.188 0.048-6.384 0.010-9.574 0.018 0.043 0.582 0.145 1.082 0.417 1.606 0.502 0.969 1.336 1.61 2.377 1.915 1.392 0.409 2.659 0.107 3.889-0.576 0.3-0.207 0.568-0.46 0.84-0.702 0.506 0.272 1.018 0.492 1.551 0.704-0.834 1.096-1.871 1.89-3.219 2.232-1.675 0.425-3.597 0.262-5.092-0.64-1.327-0.801-2.237-2.122-2.586-3.626-0.398-1.718-0.12-3.693 0.84-5.182s2.273-2.209 3.965-2.575zM99.26 16.93c1.518-0.004 3.038-0.025 4.556-0.009l3.217-0.002c-0.334-1.251-0.684-2.47-1.894-3.158-0.749-0.427-1.663-0.499-2.509-0.414-1.004 0.166-1.853 0.544-2.476 1.383-0.494 0.665-0.705 1.408-0.895 2.199z"></path>
      <path d="M135.37 11.764c1.942-0.091 3.913-0.025 5.859-0.019-0.1 3.888-0.011 7.803-0.013 11.695l-2.001-0.022-0.001-3.995c-0.956-0.006-2.214-0.193-3.126 0.024-0.285 0.068-0.335 0.211-0.495 0.432-0.675 1.198-1.427 2.354-2.104 3.552-0.756 0.017-1.513 0.019-2.269 0.006 0.74-1.39 1.745-3.158 2.725-4.362-0.117-0.057-0.232-0.117-0.346-0.179-0.854-0.472-1.508-1.23-1.759-2.182-0.26-0.992-0.118-2.124 0.413-3.005 0.715-1.188 1.835-1.645 3.117-1.947zM137.422 17.746c0.591-0.005 1.194 0.013 1.782-0.029-0.008-1.383-0.004-2.766 0.011-4.149-1.173-0.004-2.363-0.036-3.535 0.029-0.739 0.232-1.316 0.482-1.716 1.194-0.264 0.474-0.335 1.099-0.157 1.613 0.173 0.498 0.573 0.848 1.043 1.061 0.795 0.359 1.72 0.289 2.571 0.281z"></path>
      <path d="M86.927 11.871c2.534-0.091 5.089-0.032 7.626-0.037l-0.012 11.604c-0.632-0.009-1.267-0.036-1.893 0.050l-0.009-9.829-1.075 0.043c-0.96-0.047-1.94 0.016-2.902 0.038-0.027 2.339-0.036 7.188-1.674 8.919-0.817 0.863-1.74 0.951-2.856 0.961-0.008-0.61-0.041-1.213-0.085-1.821 0.291-0.027 0.6-0.047 0.884-0.119 1.764-0.445 1.795-6.272 1.839-7.741 0.017-0.573-0.109-1.602 0.158-2.068z"></path>
      <path d="M128.024 11.785l0.26-0.015c0.031 0.042 0.075 0.077 0.094 0.126 0.087 0.228-0.003 10.365-0.001 11.537l-1.7 0.012-0.125-0.025c-0.272-0.492 0.001-10.151-0.084-11.612 0.519 0.006 1.038-0.011 1.556-0.023z"></path>
      <path d="M126.432 7.409l1.955-0.006c-0.021 0.694-0.005 1.388 0.004 2.082l-2.012 0.015c0.029-0.697 0.047-1.394 0.052-2.091z"></path>
    </symbol>
    <symbol id="icon-x-icon" viewBox="0 0 32 32">
      <path d="M21.589 8.459l-5.657 5.656-5.656-5.656-1.885 1.885 5.656 5.656-5.656 5.656 1.885 1.885 5.656-5.656 5.657 5.656 1.885-1.885-5.656-5.656 5.656-5.656-1.885-1.885z"></path>
    </symbol>
  </defs>
</svg>

