<svg width="16" height="16" viewBox="0 0 16 16" fill="none" xmlns="http://www.w3.org/2000/svg">
<path d="M14.8353 14.3639L14.3638 14.8353C14.1035 15.0956 13.6814 15.0956 13.421 14.8353L7.99988 9.41408L2.57868 14.8352C2.31838 15.0956 1.89626 15.0956 1.63591 14.8352L1.1645 14.3638C0.904151 14.1035 0.904151 13.6814 1.1645 13.421L6.58568 7.99988L1.1645 2.57868C0.904151 2.31838 0.904151 1.89626 1.1645 1.63591L1.6359 1.16451C1.89625 0.90416 2.31838 0.90416 2.57868 1.16451L7.99988 6.58568L13.421 1.1645C13.6814 0.904151 14.1035 0.904151 14.3638 1.1645L14.8353 1.6359C15.0956 1.89625 15.0956 2.31838 14.8353 2.57868L9.41408 7.99988L14.8353 13.421C15.0956 13.6814 15.0956 14.1035 14.8353 14.3639Z" fill="#080C09"/>
</svg>
