<!-- Generated by IcoMoon.io -->
<svg version="1.1" xmlns="http://www.w3.org/2000/svg" width="1024" height="1024" viewBox="0 0 1024 1024">
<g id="icomoon-ignore">
</g>
<path fill="#000" d="M464.439 2.249c281.731-26.288 531.364 180.954 557.362 462.713 25.999 281.77-181.492 531.177-463.278 556.887-281.377 25.682-530.362-181.449-556.324-462.808-25.959-281.349 180.914-530.545 462.24-556.791zM566.597 967.662c251.514-30.2 430.876-258.661 400.525-510.145-30.348-251.496-258.909-430.716-510.385-400.206-251.251 30.48-430.274 258.792-399.953 510.052 30.324 251.296 258.521 430.445 509.813 400.3z"></path>
<path fill="#000" d="M703.077 241.353l58.976-0.412c1.146 173.748 1.228 347.508 0.255 521.257l-60.982 0.782-0.090-326.463-0.28-89.396c-34.061 65.985-72.733 129.421-109.574 193.807-23.354 40.809-45.043 87.63-73.942 124.326-6.894 2.573-14.372 2.769-21.553 1.091-2.349-0.559-7.264-2.433-9.048-3.887-15.588-12.699-162.164-275.542-185.572-315.402 6.008 47.267 2.234 98.84 2.208 146.554l-0.178 268.084-62.356 0.224c1.932-173.468-1.117-347.060 0.512-520.568l67.903 0.361c30.195 55.109 62.584 109.066 93.897 163.525 33.275 57.875 65.676 116.451 101.027 173.033 35.965-67.044 76.183-132.023 114.844-197.514 27.384-46.385 53.272-95.235 83.954-139.401z"></path>
</svg>
